<svg
        xmlns="http://www.w3.org/2000/svg"
        xmlns:xlink="http://www.w3.org/1999/xlink"
        width="27px" height="26px">
    <defs>
        <filter filterUnits="userSpaceOnUse" id="Filter_0" x="0px" y="0px" width="27px" height="26px">
            <feOffset in="SourceAlpha" dx="0" dy="1"/>
            <feGaussianBlur result="blurOut" stdDeviation="0"/>
            <feFlood flood-color="rgb(0, 0, 0)" result="floodOut"/>
            <feComposite operator="atop" in="floodOut" in2="blurOut"/>
            <feComponentTransfer>
                <feFuncA type="linear" slope="0.3"/>
            </feComponentTransfer>
            <feMerge>
                <feMergeNode/>
                <feMergeNode in="SourceGraphic"/>
            </feMerge>
        </filter>
        <linearGradient id="PSgrad_0" x1="0%" x2="0%" y1="100%" y2="0%">
            <stop offset="0%" stop-color="rgb(84,115,148)" stop-opacity="1" />
            <stop offset="100%" stop-color="rgb(92,145,201)" stop-opacity="1" />
        </linearGradient>

    </defs>
    <g filter="url(#Filter_0)">
        <path fill-rule="evenodd" fill="rgb(255, 255, 255)"
              d="M21.000,1.000 L25.000,1.000 L25.000,10.000 L20.980,5.059 L21.000,1.000 ZM23.000,13.000 L12.626,1.895 L3.000,13.000 L-0.000,13.000 L10.955,-0.000 L14.297,-0.000 L26.000,13.000 L23.000,13.000 ZM23.000,16.000 L23.000,25.000 L16.000,25.000 L15.968,18.234 C15.968,17.318 14.923,16.000 14.000,16.000 L11.000,16.000 C10.077,16.000 9.000,17.084 9.000,18.000 L9.000,25.000 L2.000,25.000 L2.000,16.000 L12.626,4.412 L23.000,16.000 Z"/>
    </g>
    <path fill="url(#PSgrad_0)"
          d="M21.000,1.000 L25.000,1.000 L25.000,10.000 L20.980,5.059 L21.000,1.000 ZM23.000,13.000 L12.626,1.895 L3.000,13.000 L-0.000,13.000 L10.955,-0.000 L14.297,-0.000 L26.000,13.000 L23.000,13.000 ZM23.000,16.000 L23.000,25.000 L16.000,25.000 L15.968,18.234 C15.968,17.318 14.923,16.000 14.000,16.000 L11.000,16.000 C10.077,16.000 9.000,17.084 9.000,18.000 L9.000,25.000 L2.000,25.000 L2.000,16.000 L12.626,4.412 L23.000,16.000 Z"/>
</svg>