<svg
        xmlns="http://www.w3.org/2000/svg"
        xmlns:xlink="http://www.w3.org/1999/xlink"
        width="28px" height="27px">
    <defs>
        <linearGradient id="PSgrad_0" x1="0%" x2="0%" y1="100%" y2="0%">
            <stop offset="0%" stop-color="rgb(168,228,255)" stop-opacity="1" />
            <stop offset="100%" stop-color="rgb(207,238,255)" stop-opacity="1" />
        </linearGradient>

    </defs>
    <path fill-rule="evenodd" fill-opacity="0.8" fill="rgb(255, 255, 255)"
          d="M22.000,27.000 L5.000,27.000 C2.232,27.000 -0.000,24.746 -0.000,22.000 L-0.000,5.000 C-0.000,2.253 2.232,-0.000 5.000,-0.000 L23.000,-0.000 C25.768,-0.000 27.026,2.272 27.026,5.018 L27.026,21.594 C27.026,24.341 24.768,27.000 22.000,27.000 ZM24.000,5.000 C24.000,4.084 22.923,3.000 22.000,3.000 L5.000,3.000 C4.077,3.000 3.000,4.084 3.000,5.000 L3.000,22.000 C3.000,22.915 4.077,24.000 5.000,24.000 L22.000,24.000 C22.923,24.000 24.000,22.915 24.000,22.000 L24.000,5.000 ZM20.000,22.000 L7.000,22.000 C6.077,22.000 5.306,21.852 5.306,20.937 L5.306,20.391 C5.935,18.993 6.586,17.248 6.977,16.430 C7.917,14.461 9.860,19.331 11.102,19.331 C13.399,19.331 16.271,10.473 18.672,13.219 C19.847,14.561 21.069,18.055 22.014,20.165 L22.014,20.937 C22.014,21.852 20.923,22.000 20.000,22.000 ZM7.812,9.991 C6.428,9.991 5.306,8.878 5.306,7.505 C5.306,6.131 6.428,5.018 7.812,5.018 C9.197,5.018 10.318,6.131 10.318,7.505 C10.318,8.878 9.197,9.991 7.812,9.991 Z"/>
    <path fill="url(#PSgrad_0)"
          d="M22.000,27.000 L5.000,27.000 C2.232,27.000 -0.000,24.746 -0.000,22.000 L-0.000,5.000 C-0.000,2.253 2.232,-0.000 5.000,-0.000 L23.000,-0.000 C25.768,-0.000 27.026,2.272 27.026,5.018 L27.026,21.594 C27.026,24.341 24.768,27.000 22.000,27.000 ZM24.000,5.000 C24.000,4.084 22.923,3.000 22.000,3.000 L5.000,3.000 C4.077,3.000 3.000,4.084 3.000,5.000 L3.000,22.000 C3.000,22.915 4.077,24.000 5.000,24.000 L22.000,24.000 C22.923,24.000 24.000,22.915 24.000,22.000 L24.000,5.000 ZM20.000,22.000 L7.000,22.000 C6.077,22.000 5.306,21.852 5.306,20.937 L5.306,20.391 C5.935,18.993 6.586,17.248 6.977,16.430 C7.917,14.461 9.860,19.331 11.102,19.331 C13.399,19.331 16.271,10.473 18.672,13.219 C19.847,14.561 21.069,18.055 22.014,20.165 L22.014,20.937 C22.014,21.852 20.923,22.000 20.000,22.000 ZM7.812,9.991 C6.428,9.991 5.306,8.878 5.306,7.505 C5.306,6.131 6.428,5.018 7.812,5.018 C9.197,5.018 10.318,6.131 10.318,7.505 C10.318,8.878 9.197,9.991 7.812,9.991 Z"/>
</svg>