<svg
        xmlns="http://www.w3.org/2000/svg"
        xmlns:xlink="http://www.w3.org/1999/xlink"
        width="27px" height="27px">
    <defs>
        <filter filterUnits="userSpaceOnUse" id="Filter_0" x="0px" y="0px" width="27px" height="27px">
            <feOffset in="SourceAlpha" dx="0" dy="1"/>
            <feGaussianBlur result="blurOut" stdDeviation="0"/>
            <feFlood flood-color="rgb(0, 0, 0)" result="floodOut"/>
            <feComposite operator="atop" in="floodOut" in2="blurOut"/>
            <feComponentTransfer>
                <feFuncA type="linear" slope="0.3"/>
            </feComponentTransfer>
            <feMerge>
                <feMergeNode/>
                <feMergeNode in="SourceGraphic"/>
            </feMerge>
        </filter>
        <linearGradient id="PSgrad_0" x1="0%" x2="0%" y1="100%" y2="0%">
            <stop offset="0%" stop-color="rgb(84,115,148)" stop-opacity="1"/>
            <stop offset="100%" stop-color="rgb(92,145,201)" stop-opacity="1"/>
        </linearGradient>

    </defs>
    <g filter="url(#Filter_0)">
        <path fill-rule="evenodd" fill="rgb(255, 255, 255)"
              d="M23.000,18.000 L23.000,7.000 C23.000,4.253 21.768,3.000 19.000,3.000 L5.000,3.000 C5.690,1.073 6.821,-0.000 9.000,-0.000 L22.000,-0.000 C24.768,-0.000 26.000,1.253 26.000,4.000 L26.000,14.000 C26.000,16.162 24.942,17.314 23.000,18.000 ZM21.000,9.000 L21.000,16.999 C21.000,19.746 19.473,21.036 16.705,21.036 L11.692,21.036 L8.351,26.009 L5.009,21.036 C2.241,21.036 -0.000,19.746 -0.000,16.999 L-0.003,9.432 C-0.003,6.686 2.232,4.999 5.000,4.999 L17.000,4.999 C19.768,4.999 21.000,6.253 21.000,9.000 ZM3.000,9.000 L3.000,16.999 C3.000,17.915 4.046,18.000 5.000,18.000 L6.000,18.000 L8.351,21.036 L11.000,18.000 L17.000,18.000 C17.923,18.000 18.000,16.915 18.000,16.000 L18.000,9.000 C18.000,8.084 17.923,8.000 17.000,8.000 L5.000,8.000 C3.358,7.969 3.000,8.084 3.000,9.000 Z"/>
    </g>
    <path fill="url(#PSgrad_0)"
          d="M23.000,18.000 L23.000,7.000 C23.000,4.253 21.768,3.000 19.000,3.000 L5.000,3.000 C5.690,1.073 6.821,-0.000 9.000,-0.000 L22.000,-0.000 C24.768,-0.000 26.000,1.253 26.000,4.000 L26.000,14.000 C26.000,16.162 24.942,17.314 23.000,18.000 ZM21.000,9.000 L21.000,16.999 C21.000,19.746 19.473,21.036 16.705,21.036 L11.692,21.036 L8.351,26.009 L5.009,21.036 C2.241,21.036 -0.000,19.746 -0.000,16.999 L-0.003,9.432 C-0.003,6.686 2.232,4.999 5.000,4.999 L17.000,4.999 C19.768,4.999 21.000,6.253 21.000,9.000 ZM3.000,9.000 L3.000,16.999 C3.000,17.915 4.046,18.000 5.000,18.000 L6.000,18.000 L8.351,21.036 L11.000,18.000 L17.000,18.000 C17.923,18.000 18.000,16.915 18.000,16.000 L18.000,9.000 C18.000,8.084 17.923,8.000 17.000,8.000 L5.000,8.000 C3.358,7.969 3.000,8.084 3.000,9.000 Z"/>
</svg>