<svg
        xmlns="http://www.w3.org/2000/svg"
        xmlns:xlink="http://www.w3.org/1999/xlink"
        width="29px" height="28px">
    <defs>
        <filter filterUnits="userSpaceOnUse" id="Filter_0" x="0px" y="0px" width="29px" height="28px">
            <feOffset in="SourceAlpha" dx="0" dy="1"/>
            <feGaussianBlur result="blurOut" stdDeviation="0"/>
            <feFlood flood-color="rgb(0, 0, 0)" result="floodOut"/>
            <feComposite operator="atop" in="floodOut" in2="blurOut"/>
            <feComponentTransfer>
                <feFuncA type="linear" slope="0.3"/>
            </feComponentTransfer>
            <feMerge>
                <feMergeNode/>
                <feMergeNode in="SourceGraphic"/>
            </feMerge>
        </filter>
        <linearGradient id="PSgrad_0" x1="0%" x2="0%" y1="100%" y2="0%">
            <stop offset="0%" stop-color="rgb(84,115,148)" stop-opacity="1"/>
            <stop offset="100%" stop-color="rgb(92,145,201)" stop-opacity="1"/>
        </linearGradient>

    </defs>
    <g filter="url(#Filter_0)">
        <path fill-rule="evenodd" fill="rgb(255, 255, 255)"
              d="M14.133,26.567 C6.751,26.567 0.767,20.629 0.767,13.306 C0.767,5.982 6.751,0.045 14.133,0.045 C21.515,0.045 27.500,5.982 27.500,13.306 C27.500,20.629 21.515,26.567 14.133,26.567 ZM14.133,3.360 C8.597,3.360 4.109,7.813 4.109,13.306 C4.109,18.800 8.597,23.252 14.133,23.252 C19.669,23.252 24.158,18.800 24.158,13.306 C24.158,7.813 19.669,3.360 14.133,3.360 ZM14.133,21.594 C12.334,21.594 10.678,21.018 9.313,20.056 C9.193,19.765 9.121,19.444 9.121,19.108 L9.121,19.108 C9.379,17.588 10.410,16.311 11.722,15.590 C11.148,14.996 10.792,14.193 10.792,13.306 L10.792,11.648 C10.792,9.817 12.288,8.333 14.133,8.333 C15.979,8.333 17.475,9.817 17.475,11.648 L17.475,13.306 C17.475,14.193 17.119,14.996 16.546,15.590 C17.857,16.311 18.888,17.588 19.146,19.108 L19.146,19.108 C19.146,19.444 19.074,19.765 18.953,20.056 C17.589,21.018 15.933,21.594 14.133,21.594 Z"/>
    </g>
    <path fill="url(#PSgrad_0)"
          d="M14.133,26.567 C6.751,26.567 0.767,20.629 0.767,13.306 C0.767,5.982 6.751,0.045 14.133,0.045 C21.515,0.045 27.500,5.982 27.500,13.306 C27.500,20.629 21.515,26.567 14.133,26.567 ZM14.133,3.360 C8.597,3.360 4.109,7.813 4.109,13.306 C4.109,18.800 8.597,23.252 14.133,23.252 C19.669,23.252 24.158,18.800 24.158,13.306 C24.158,7.813 19.669,3.360 14.133,3.360 ZM14.133,21.594 C12.334,21.594 10.678,21.018 9.313,20.056 C9.193,19.765 9.121,19.444 9.121,19.108 L9.121,19.108 C9.379,17.588 10.410,16.311 11.722,15.590 C11.148,14.996 10.792,14.193 10.792,13.306 L10.792,11.648 C10.792,9.817 12.288,8.333 14.133,8.333 C15.979,8.333 17.475,9.817 17.475,11.648 L17.475,13.306 C17.475,14.193 17.119,14.996 16.546,15.590 C17.857,16.311 18.888,17.588 19.146,19.108 L19.146,19.108 C19.146,19.444 19.074,19.765 18.953,20.056 C17.589,21.018 15.933,21.594 14.133,21.594 Z"/>
</svg>